<?xml version="1.0" standalone="no"?>
<!DOCTYPE svg PUBLIC "-//W3C//DTD SVG 20010904//EN"
 "http://www.w3.org/TR/2001/REC-SVG-20010904/DTD/svg10.dtd">
<svg version="1.0" xmlns="http://www.w3.org/2000/svg"
 width="104.000000pt" height="104.000000pt" viewBox="0 0 104.000000 104.000000"
 preserveAspectRatio="xMidYMid meet">
<metadata>
Created by potrace 1.11, written by Peter Selinger 2001-2013
</metadata>
<g transform="translate(0.000000,104.000000) scale(0.100000,-0.100000)"
fill="#000000" stroke="none">
<path d="M84 935 c-86 -148 -86 -362 1 -511 202 -344 704 -329 879 27 77 158
74 325 -11 480 -14 27 -28 47 -30 45 -2 -2 5 -19 15 -37 101 -180 68 -405 -81
-554 -65 -64 -156 -118 -223 -131 l-34 -6 0 90 0 90 38 7 c81 15 177 96 203
171 19 59 16 151 -8 204 -59 132 -226 186 -320 102 -43 -37 -53 -81 -53 -232
0 -154 -4 -162 -54 -115 -73 68 -74 194 -2 273 l33 36 -26 37 c-29 43 -40 46
-79 22 -134 -84 -176 -266 -90 -390 34 -50 95 -89 167 -106 l51 -12 0 -91 0
-92 -42 9 c-168 36 -304 163 -356 329 -36 116 -23 240 37 358 29 56 19 54 -15
-3z m602 -144 c28 -57 24 -150 -9 -200 -24 -36 -61 -60 -74 -47 -3 2 -5 69 -5
147 1 101 4 144 13 150 20 12 57 -12 75 -50z"/>
<path d="M772 491 c-35 -33 -84 -58 -149 -77 -27 -7 -13 -24 15 -18 60 15 117
53 166 112 29 34 15 26 -32 -17z"/>
<path d="M249 492 c7 -13 32 -36 57 -51 45 -29 130 -58 140 -48 12 12 -7 25
-47 31 -50 8 -95 30 -133 65 -27 25 -28 25 -17 3z"/>
<path d="M306 158 c2 -4 -8 -8 -23 -10 -24 -3 -25 -4 -8 -9 11 -3 38 2 60 12
l40 18 -36 -2 c-21 -1 -35 -5 -33 -9z"/>
<path d="M385 161 c3 -2 21 -10 40 -17 26 -9 37 -9 42 0 3 6 3 8 -2 4 -4 -4
-17 -2 -29 4 -21 12 -60 19 -51 9z"/>
<path d="M606 154 c-11 -7 -18 -16 -15 -18 2 -2 13 2 23 10 11 7 18 16 15 18
-2 2 -13 -2 -23 -10z"/>
<path d="M690 160 c0 -4 11 -11 24 -14 13 -3 37 -21 54 -40 16 -19 43 -42 58
-52 l29 -18 -23 25 c-14 17 -20 33 -16 45 5 18 5 18 -9 2 -13 -17 -15 -16 -36
6 -21 23 -22 25 -4 29 12 3 8 5 -10 6 -16 0 -26 4 -24 9 3 4 -6 8 -19 8 -13 1
-24 -2 -24 -6z"/>
<path d="M170 131 c0 -5 9 -19 20 -32 22 -28 28 -6 6 24 -14 18 -26 22 -26 8z"/>
<path d="M360 120 c-13 -12 -30 -18 -37 -16 -7 3 -15 1 -18 -4 -4 -6 -1 -10 6
-10 7 0 9 -10 6 -30 -5 -22 -3 -30 8 -30 22 0 45 29 45 59 0 15 5 32 12 39 20
20 3 14 -22 -8z"/>
<path d="M567 126 c4 -11 2 -17 -3 -13 -6 3 -15 3 -21 -1 -6 -4 4 -14 23 -23
19 -9 34 -13 34 -8 0 5 -5 9 -11 9 -5 0 -8 4 -5 9 3 4 -1 17 -9 27 -15 19 -15
19 -8 0z"/>
<path d="M658 129 c6 -7 12 -25 12 -39 0 -27 27 -60 48 -60 15 0 15 15 1 42
-7 13 -7 18 -1 14 6 -3 13 -2 16 3 4 5 -7 12 -24 16 -16 4 -30 10 -30 15 0 4
-8 11 -17 15 -15 5 -16 4 -5 -6z"/>
<path d="M840 111 c-12 -17 -17 -31 -11 -31 13 0 46 48 38 56 -2 3 -15 -9 -27
-25z"/>
<path d="M10 119 c0 -5 4 -8 9 -5 4 3 17 -1 27 -9 25 -19 34 -19 34 1 0 8 -4
13 -9 9 -5 -3 -12 -1 -16 5 -8 13 -45 13 -45 -1z"/>
<path d="M460 115 c-7 -8 -9 -15 -5 -15 4 0 1 -8 -6 -17 -12 -16 -12 -17 2 -6
9 7 19 10 22 6 4 -3 7 -1 7 5 0 6 7 12 15 14 13 2 12 5 -4 15 -15 10 -22 9
-31 -2z"/>
<path d="M985 120 c-4 -6 -11 -7 -17 -4 -6 4 -8 2 -5 -3 4 -6 -3 -22 -14 -37
l-20 -26 21 0 c15 0 20 5 17 15 -7 16 40 58 54 49 5 -3 9 0 9 5 0 14 -37 14
-45 1z"/>
<path d="M220 108 c0 -10 5 -18 12 -18 7 0 -3 -11 -22 -25 -19 -14 -28 -25
-22 -25 7 0 30 17 50 38 21 20 31 32 23 25 -11 -10 -17 -9 -27 5 -13 16 -13
16 -14 0z"/>
<path d="M871 74 c0 -11 3 -14 6 -6 3 7 2 16 -1 19 -3 4 -6 -2 -5 -13z"/>
<path d="M76 73 c-11 -11 -6 -23 9 -23 8 0 15 4 15 9 0 13 -16 22 -24 14z"/>
<path d="M899 43 c-13 -16 -12 -17 4 -4 9 7 17 15 17 17 0 8 -8 3 -21 -13z"/>
<path d="M135 40 c3 -5 8 -10 11 -10 2 0 4 5 4 10 0 6 -5 10 -11 10 -5 0 -7
-4 -4 -10z"/>
</g>
</svg>
